<svg width="17" height="16" viewBox="0 0 17 16" fill="none" xmlns="http://www.w3.org/2000/svg">
<path d="M11.2101 5.1182C11.02 2.37402 8.72991 0.135742 5.85729 0.135742C2.89882 0.135742 0.492188 2.54265 0.492188 5.50146C0.492188 8.37443 2.7302 10.6648 5.47406 10.8549C5.67027 13.6328 7.99413 15.8343 10.8238 15.8343C13.7823 15.8343 16.1889 13.4274 16.1889 10.4686C16.1889 7.63856 13.9877 5.31443 11.2101 5.1182ZM1.41192 5.50146C1.41192 3.04856 3.40467 1.05558 5.85729 1.05558C8.21486 1.05558 10.1064 2.87993 10.2873 5.13046C9.18671 5.24084 8.18421 5.68237 7.38097 6.35691L6.32328 3.18041C6.26197 2.99337 6.08415 2.8646 5.88794 2.8646C5.69173 2.8646 5.51392 2.99031 5.4526 3.18041L3.98103 7.59563C3.88293 7.89304 4.10366 8.19966 4.41637 8.19966C4.60952 8.19966 4.78733 8.07701 4.85171 7.88385L5.07245 7.2185H6.55628C5.96765 7.98809 5.58443 8.9202 5.48326 9.93202C3.27284 9.75725 1.41192 7.89304 1.41192 5.50146ZM6.3938 6.29866H5.38209L5.88794 4.77786L6.3938 6.29866ZM10.8238 14.9145C8.37122 14.9145 6.37847 12.9215 6.37847 10.4686C6.37847 8.01569 8.37122 6.02271 10.8238 6.02271C13.2764 6.02271 15.2692 8.01569 15.2692 10.4686C15.2692 12.9215 13.2764 14.9145 10.8238 14.9145Z" fill="#194F4C"/>
<path d="M12.2646 2.06742C13.3621 2.06742 14.2573 2.96273 14.2573 4.0604C14.2573 4.31489 14.4627 4.52032 14.7172 4.52032C14.9716 4.52032 15.177 4.31489 15.177 4.0604C15.177 2.45375 13.871 1.14758 12.2646 1.14758C12.0101 1.14758 11.8047 1.35301 11.8047 1.6075C11.8047 1.86199 12.0101 2.06742 12.2646 2.06742Z" fill="#194F4C"/>
<path d="M4.41639 13.9026C3.31884 13.9026 2.42364 13.0073 2.42364 11.9096C2.42364 11.6551 2.21823 11.4497 1.96377 11.4497C1.70931 11.4497 1.50391 11.6551 1.50391 11.9096C1.50391 13.5163 2.80992 14.8224 4.41639 14.8224C4.67085 14.8224 4.87625 14.617 4.87625 14.3625C4.87625 14.108 4.67085 13.9026 4.41639 13.9026Z" fill="#194F4C"/>
<path d="M13.2869 8.61979C13.3942 8.61979 13.4708 8.65352 13.5168 8.71791C13.5628 8.7823 13.5873 8.88041 13.5873 9.00919C13.5873 9.06745 13.5781 9.1349 13.5628 9.21769C13.5475 9.30047 13.5291 9.3618 13.5076 9.40166H12.9098V12.7376C12.873 12.7499 12.8025 12.7652 12.6982 12.7775C12.5909 12.7897 12.4959 12.7959 12.407 12.7959C12.2139 12.7959 12.0667 12.7652 11.9686 12.7069C11.8705 12.6487 11.8214 12.5168 11.8214 12.3175V11.2229C11.7846 11.2321 11.7509 11.2352 11.7141 11.2352C11.6773 11.2352 11.6436 11.2352 11.6068 11.2352C11.4873 11.2352 11.3677 11.2229 11.2481 11.1953C11.1286 11.1677 11.0213 11.131 10.9293 11.0819L10.917 11.1003C10.9875 11.1616 11.0458 11.2475 11.0887 11.3517C11.1316 11.459 11.1562 11.5633 11.1562 11.6645C11.1562 11.9864 11.0243 12.2378 10.7607 12.4157C10.497 12.5935 10.1261 12.6824 9.64166 12.6824C9.46078 12.6824 9.2891 12.6671 9.12968 12.6364C8.97026 12.6058 8.8323 12.5598 8.71273 12.5046C8.59317 12.4463 8.49813 12.3758 8.42761 12.293C8.3571 12.2102 8.32031 12.1152 8.32031 12.0079C8.32031 11.8668 8.36017 11.7503 8.43988 11.6583C8.51959 11.5663 8.60236 11.5081 8.69127 11.4836C8.78324 11.5663 8.90281 11.6461 9.0469 11.7196C9.19099 11.7932 9.34735 11.83 9.51597 11.83C9.68765 11.83 9.81948 11.7932 9.90839 11.7196C9.99729 11.6461 10.0402 11.5449 10.0402 11.4192C10.0402 11.3088 10.0065 11.2168 9.93598 11.1401C9.86853 11.0635 9.76429 11.0267 9.62633 11.0267H9.00398C8.96719 10.9838 8.9396 10.9255 8.91814 10.855C8.89668 10.7845 8.88442 10.7048 8.88442 10.6158C8.88442 10.5239 8.89668 10.4411 8.91814 10.3706C8.9396 10.3 8.97026 10.2387 9.00398 10.1927H9.5221C9.66312 10.1927 9.77349 10.159 9.85014 10.0946C9.92678 10.0271 9.96664 9.93516 9.96664 9.81558C9.96664 9.7052 9.92985 9.61015 9.85627 9.53043C9.78269 9.45071 9.65393 9.41085 9.46691 9.41085C9.36574 9.41085 9.26457 9.43232 9.16953 9.47524C9.07143 9.51817 8.98865 9.57029 8.91814 9.63775C8.80164 9.58869 8.71273 9.52123 8.64222 9.43538C8.57477 9.34953 8.53798 9.24835 8.53798 9.1349C8.53798 8.9632 8.63302 8.82216 8.82003 8.71791C9.00705 8.6106 9.2799 8.55847 9.6386 8.55847C9.85014 8.55847 10.0463 8.58607 10.2211 8.63819C10.3989 8.69031 10.5491 8.76697 10.6748 8.86508C10.8005 8.9632 10.8986 9.07971 10.9691 9.21769C11.0397 9.35566 11.0764 9.5059 11.0764 9.66841C11.0764 9.80638 11.0458 9.93516 10.9845 10.0578C10.9232 10.1805 10.8434 10.2816 10.7453 10.3675C10.8833 10.3951 11.0274 10.4073 11.1776 10.4073C11.2849 10.4073 11.3892 10.4012 11.4965 10.3889C11.6038 10.3767 11.708 10.3522 11.8153 10.3154V9.41392H11.5486C11.4382 9.41392 11.3616 9.38019 11.3156 9.30967C11.2727 9.24222 11.2481 9.14104 11.2481 9.00919C11.2481 8.95707 11.2543 8.88961 11.2665 8.80989C11.2788 8.73017 11.2972 8.67192 11.3186 8.63206H13.2869V8.61979Z" fill="#194F4C"/>
</svg>
