<svg width="13" height="14" viewBox="0 0 13 14" fill="none" xmlns="http://www.w3.org/2000/svg">
<path d="M6.5198 13.2977C6.9341 13.2982 7.33826 13.1745 7.67612 12.9437C8.01397 12.713 8.26872 12.3867 8.40497 12.0102H4.63463C4.77088 12.3867 5.02563 12.713 5.36349 12.9437C5.70134 13.1745 6.10551 13.2982 6.5198 13.2977ZM11.2026 8.52507V5.57293C11.2026 3.50205 9.74091 1.75755 7.76075 1.23291C7.56474 0.757835 7.08575 0.423096 6.5198 0.423096C5.95385 0.423096 5.47487 0.757835 5.27886 1.23291C3.29869 1.75819 1.83699 3.50205 1.83699 5.57293V8.52507L0.695049 9.62392C0.632806 9.6836 0.583444 9.75453 0.549804 9.83264C0.516165 9.91075 0.498912 9.99449 0.499039 10.079V10.7228C0.499039 10.8935 0.56952 11.0572 0.694977 11.178C0.820434 11.2987 0.99059 11.3665 1.16801 11.3665H11.8716C12.049 11.3665 12.2192 11.2987 12.3446 11.178C12.4701 11.0572 12.5406 10.8935 12.5406 10.7228V10.079C12.5407 9.99449 12.5234 9.91075 12.4898 9.83264C12.4562 9.75453 12.4068 9.6836 12.3446 9.62392L11.2026 8.52507Z" fill="#194F4C"/>
</svg>
