<svg width="28" height="16" viewBox="0 0 28 16" fill="none" xmlns="http://www.w3.org/2000/svg">
<path d="M26.5845 2.51556C26.4354 2.03301 26.1439 1.59293 25.7392 1.23914C25.3344 0.885341 24.8304 0.630165 24.2774 0.499009C22.227 0.00800158 14.0238 8.67428e-06 14.0238 8.67428e-06C14.0238 8.67428e-06 5.8219 -0.0079847 3.77012 0.461327C3.21747 0.598519 2.71453 0.857304 2.3096 1.21284C1.90467 1.56837 1.61134 2.00871 1.45777 2.49158C0.917006 4.27976 0.911768 7.98858 0.911768 7.98858C0.911768 7.98858 0.906531 11.7157 1.44337 13.4856C1.74453 14.4642 2.62835 15.2372 3.75179 15.501C5.82321 15.992 14.0041 16 14.0041 16C14.0041 16 22.2073 16.008 24.2578 15.5398C24.811 15.4089 25.3154 15.1543 25.7212 14.8012C26.127 14.4482 26.4201 14.0088 26.5715 13.5267C27.1135 11.7396 27.1175 8.03197 27.1175 8.03197C27.1175 8.03197 27.1436 4.30374 26.5845 2.51556ZM11.3998 11.4245L11.4064 4.57323L18.2242 8.00457L11.3998 11.4245Z" fill="#CE0A0A"/>
</svg>
